<?xml version="1.0" encoding="utf-8"?>
<!-- Generator: Adobe Illustrator 25.2.3, SVG Export Plug-In . SVG Version: 6.00 Build 0)  -->
<svg version="1.1" id="Capa_1" xmlns="http://www.w3.org/2000/svg" xmlns:xlink="http://www.w3.org/1999/xlink" x="0px" y="0px"
	 viewBox="0 0 256 256" style="enable-background:new 0 0 256 256;" xml:space="preserve">
<style type="text/css">
	.st0{fill:#888888;}
	.st1{fill:url(#SVGID_1_);}
	.st2{fill:none;stroke:#009EE2;stroke-width:8;stroke-linecap:round;stroke-miterlimit:10;}
	.st3{fill:none;stroke:#009EE2;stroke-width:8;stroke-linecap:round;stroke-miterlimit:10;stroke-dasharray:24.7062,19.7649,0,0;}
</style>
<g>
	<path class="st0" d="M220.8,83.6c-2.1,0-4.1,0.2-6,0.6c0-0.6,0.1-1.1,0.1-1.7c0-24.7-20.1-44.8-44.8-44.8c-1,0-2.1,0-3.1,0.1
		c-22.3,1.5-40,19.3-41.6,41.6c-3.2-4.3-8.4-7.1-14.2-7.1c-9.8,0-17.8,7.9-17.8,17.8c0,2.1,0.4,4.2,1.1,6.1
		c-4.2-2.4-9.1-3.7-14.2-3.7c-16.1,0-29.2,13.1-29.2,29.2s13.1,29.2,29.2,29.2H167h53.8c9.3,0,17.7-3.8,23.8-9.8
		c6.1-6.1,9.8-14.5,9.8-23.8C254.4,98.6,239.3,83.6,220.8,83.6z"/>
	
		<linearGradient id="SVGID_1_" gradientUnits="userSpaceOnUse" x1="104.35" y1="203.9" x2="104.35" y2="90.8" gradientTransform="matrix(1 0 0 -1 0 256)">
		<stop  offset="0.5782" style="stop-color:#FFFFFF"/>
		<stop  offset="0.7142" style="stop-color:#FDFDFD"/>
		<stop  offset="0.7881" style="stop-color:#F5F5F5"/>
		<stop  offset="0.847" style="stop-color:#E7E7E7"/>
		<stop  offset="0.8982" style="stop-color:#D4D4D4"/>
		<stop  offset="0.9439" style="stop-color:#BBBBBB"/>
		<stop  offset="0.9857" style="stop-color:#9D9D9C"/>
		<stop  offset="0.9896" style="stop-color:#9A9A99"/>
	</linearGradient>
	<path class="st1" d="M172.4,98c-2.1,0-4.1,0.2-6,0.6c0-0.6,0.1-1.1,0.1-1.7c0-24.7-20.1-44.8-44.8-44.8c-1,0-2.1,0-3.1,0.1
		c-22.3,1.5-40,19.3-41.6,41.6c-3.2-4.3-8.4-7.1-14.2-7.1C53,86.6,45,94.6,45,104.4c0,2.1,0.4,4.2,1.1,6.1
		c-4.2-2.4-9.1-3.7-14.2-3.7c-16.1,0-29.2,13.1-29.2,29.2s13.1,29.2,29.2,29.2h86.7h53.8c9.3,0,17.7-3.8,23.8-9.8
		c6.1-6.1,9.8-14.5,9.8-23.8C206,113,190.9,98,172.4,98z"/>
</g>
<g>
	<g>
		<line class="st2" x1="74" y1="146.2" x2="67.1" y2="156.6"/>
		<line class="st3" x1="56.1" y1="173.1" x2="31.4" y2="210.1"/>
		<line class="st2" x1="31.4" y1="210.1" x2="24.5" y2="220.5"/>
	</g>
</g>
<g>
	<g>
		<line class="st2" x1="120.2" y1="124.7" x2="113.3" y2="135.1"/>
		<line class="st3" x1="102.3" y1="151.6" x2="77.6" y2="188.6"/>
		<line class="st2" x1="77.6" y1="188.6" x2="70.7" y2="199"/>
	</g>
</g>
<g>
	<g>
		<line class="st2" x1="140.1" y1="147.8" x2="133.2" y2="158.2"/>
		<line class="st3" x1="122.2" y1="174.7" x2="97.5" y2="211.7"/>
		<line class="st2" x1="97.5" y1="211.7" x2="90.6" y2="222.1"/>
	</g>
</g>
</svg>
