<?xml version="1.0" encoding="utf-8"?>
<!-- Generator: Adobe Illustrator 25.2.3, SVG Export Plug-In . SVG Version: 6.00 Build 0)  -->
<svg version="1.1" id="Capa_1" xmlns="http://www.w3.org/2000/svg" xmlns:xlink="http://www.w3.org/1999/xlink" x="0px" y="0px"
	 viewBox="0 0 256 256" style="enable-background:new 0 0 256 256;" xml:space="preserve">
<style type="text/css">
	.st0{fill:url(#SVGID_1_);}
	.st1{fill:url(#SVGID_2_);}
</style>
<g>
	<linearGradient id="SVGID_1_" gradientUnits="userSpaceOnUse" x1="161.6149" y1="50.4459" x2="236.8802" y2="170.8955">
		<stop  offset="2.930403e-02" style="stop-color:#FCEA0D"/>
		<stop  offset="0.7326" style="stop-color:#F29100"/>
	</linearGradient>
	<path class="st0" d="M192.9,42.9c-2.5,0-5,0.2-7.5,0.5c4.8,8.4,7.5,18.1,7.5,28.5c0,29.2-21.6,53.4-49.5,57.1
		c9.8,17.3,28.3,29.1,49.5,29.1c31.5,0,57-25.8,57-57.6S224.4,42.9,192.9,42.9z"/>
	<linearGradient id="SVGID_2_" gradientUnits="userSpaceOnUse" x1="123.5648" y1="82.2086" x2="123.5648" y2="214.0873">
		<stop  offset="0.5782" style="stop-color:#FFFFFF"/>
		<stop  offset="0.7142" style="stop-color:#FDFDFD"/>
		<stop  offset="0.7881" style="stop-color:#F5F5F5"/>
		<stop  offset="0.847" style="stop-color:#E7E7E7"/>
		<stop  offset="0.8982" style="stop-color:#D4D4D4"/>
		<stop  offset="0.9439" style="stop-color:#BBBBBB"/>
		<stop  offset="0.9857" style="stop-color:#9D9D9C"/>
		<stop  offset="0.9896" style="stop-color:#9A9A99"/>
	</linearGradient>
	<path class="st1" d="M202.2,135.8c-2.4,0-4.7,0.2-7,0.7c0-0.7,0.1-1.3,0.1-1.9c0-28.9-23.2-52.3-51.8-52.3c-1.2,0-2.4,0-3.5,0.1
		c-25.7,1.7-46.2,22.5-48,48.5c-3.7-5.1-9.7-8.3-16.4-8.3c-11.4,0-20.6,9.3-20.6,20.7c0,2.5,0.5,4.9,1.3,7.1
		c-4.9-2.8-10.5-4.3-16.5-4.3c-18.6,0-33.7,15.2-33.7,34c0,18.8,15.1,34.1,33.7,34.1H140h62.2c10.7,0,20.4-4.4,27.5-11.5
		c7-7.1,11.4-16.9,11.4-27.7C241,153.3,223.6,135.8,202.2,135.8z"/>
</g>
</svg>
