<?xml version="1.0" encoding="utf-8"?>
<!-- Generator: Adobe Illustrator 25.2.3, SVG Export Plug-In . SVG Version: 6.00 Build 0)  -->
<svg version="1.1" id="Capa_1" xmlns="http://www.w3.org/2000/svg" xmlns:xlink="http://www.w3.org/1999/xlink" x="0px" y="0px"
	 viewBox="0 0 256 256" style="enable-background:new 0 0 256 256;" xml:space="preserve">
<style type="text/css">
	.st0{fill:url(#SVGID_1_);}
	.st1{fill:url(#SVGID_2_);}
	.st2{fill:none;stroke:#009EE2;stroke-width:8;stroke-linecap:round;stroke-miterlimit:10;}
	.st3{fill:none;stroke:#009EE2;stroke-width:8;stroke-linecap:round;stroke-miterlimit:10;stroke-dasharray:25.3133,20.2506,0,0;}
</style>
<g>
	<g>
		<linearGradient id="SVGID_1_" gradientUnits="userSpaceOnUse" x1="160.5744" y1="32.3219" x2="232.374" y2="147.2252">
			<stop  offset="2.930403e-02" style="stop-color:#FCEA0D"/>
			<stop  offset="0.7326" style="stop-color:#F29100"/>
		</linearGradient>
		<path class="st0" d="M190.4,25.2c-2.4,0-4.8,0.2-7.2,0.5c4.6,8,7.2,17.3,7.2,27.2c0,27.8-20.7,50.8-47.6,54.3
			c9.4,16.5,27.2,27.7,47.6,27.7c30.3,0,54.8-24.5,54.8-54.8S220.6,25.2,190.4,25.2z"/>
		<linearGradient id="SVGID_2_" gradientUnits="userSpaceOnUse" x1="123.7362" y1="62.6097" x2="123.7362" y2="188.1991">
			<stop  offset="0.5782" style="stop-color:#FFFFFF"/>
			<stop  offset="0.7142" style="stop-color:#FDFDFD"/>
			<stop  offset="0.7881" style="stop-color:#F5F5F5"/>
			<stop  offset="0.847" style="stop-color:#E7E7E7"/>
			<stop  offset="0.8982" style="stop-color:#D4D4D4"/>
			<stop  offset="0.9439" style="stop-color:#BBBBBB"/>
			<stop  offset="0.9857" style="stop-color:#9D9D9C"/>
			<stop  offset="0.9896" style="stop-color:#9A9A99"/>
		</linearGradient>
		<path class="st1" d="M199.3,113.6c-2.3,0-4.5,0.2-6.7,0.6c0-0.6,0.1-1.2,0.1-1.8c0-27.5-22.3-49.8-49.8-49.8c-1.2,0-2.3,0-3.4,0.1
			c-24.7,1.7-44.5,21.4-46.2,46.2c-3.6-4.8-9.3-7.9-15.8-7.9c-10.9,0-19.8,8.8-19.8,19.7c0,2.4,0.5,4.7,1.2,6.8
			c-4.7-2.6-10.1-4.1-15.8-4.1c-17.9,0-32.4,14.5-32.4,32.4c0,17.9,14.5,32.4,32.4,32.4h96.3h59.8c10.3,0,19.6-4.2,26.4-10.9
			c6.8-6.7,10.9-16.1,10.9-26.4C236.7,130.3,219.9,113.6,199.3,113.6z"/>
	</g>
	<g>
		<g>
			<line class="st2" x1="98.9" y1="170" x2="92" y2="180.4"/>
			<line class="st3" x1="80.7" y1="197.2" x2="55.5" y2="235.1"/>
			<line class="st2" x1="55.5" y1="235.1" x2="48.5" y2="245.5"/>
		</g>
	</g>
	<g>
		<g>
			<line class="st2" x1="145.9" y1="148.1" x2="139" y2="158.5"/>
			<line class="st3" x1="127.8" y1="175.4" x2="102.5" y2="213.3"/>
			<line class="st2" x1="102.5" y1="213.3" x2="95.5" y2="223.7"/>
		</g>
	</g>
	<g>
		<g>
			<line class="st2" x1="166.1" y1="171.6" x2="159.2" y2="182"/>
			<line class="st3" x1="148" y1="198.9" x2="122.7" y2="236.8"/>
			<line class="st2" x1="122.7" y1="236.8" x2="115.8" y2="247.2"/>
		</g>
	</g>
</g>
</svg>
