<?xml version="1.0" encoding="utf-8"?>
<!-- Generator: Adobe Illustrator 25.2.3, SVG Export Plug-In . SVG Version: 6.00 Build 0)  -->
<svg version="1.1" id="Capa_1" xmlns="http://www.w3.org/2000/svg" xmlns:xlink="http://www.w3.org/1999/xlink" x="0px" y="0px"
	 viewBox="0 0 256 256" style="enable-background:new 0 0 256 256;" xml:space="preserve">
<style type="text/css">
	.st0{fill:url(#SVGID_1_);}
</style>
<linearGradient id="SVGID_1_" gradientUnits="userSpaceOnUse" x1="125.2561" y1="81.4835" x2="129.1232" y2="192.2246">
	<stop  offset="0.5782" style="stop-color:#FFFFFF"/>
	<stop  offset="0.7142" style="stop-color:#FDFDFD"/>
	<stop  offset="0.7881" style="stop-color:#F5F5F5"/>
	<stop  offset="0.847" style="stop-color:#E7E7E7"/>
	<stop  offset="0.8982" style="stop-color:#D4D4D4"/>
	<stop  offset="0.9439" style="stop-color:#BBBBBB"/>
	<stop  offset="0.9857" style="stop-color:#9D9D9C"/>
	<stop  offset="0.9896" style="stop-color:#9A9A99"/>
</linearGradient>
<path class="st0" d="M198.7,125c-2.1,0-4.2,0.2-6.3,0.5c0-0.5,0.1-1.1,0.1-1.6c0-23.8-20.8-43.2-46.5-43.2c-1.1,0-2.1,0-3.2,0.1
	c-23.1,1.4-41.6,18.6-43.2,40.1c-3.4-4.2-8.7-6.9-14.8-6.9c-10.2,0-18.5,7.6-18.5,17.1c0,2.1,0.4,4,1.2,5.9
	c-4.4-2.3-9.4-3.6-14.8-3.6c-16.7,0-30.3,12.6-30.3,28.1c0,15.5,13.6,28.1,30.3,28.1h90.1h55.9c9.6,0,18.3-3.6,24.7-9.5
	c6.3-5.9,10.2-14,10.2-22.9C233.6,139.5,217.9,125,198.7,125z"/>
</svg>
