<?xml version="1.0" encoding="utf-8"?>
<!-- Generator: Adobe Illustrator 25.2.3, SVG Export Plug-In . SVG Version: 6.00 Build 0)  -->
<svg version="1.1" id="Capa_1" xmlns="http://www.w3.org/2000/svg" xmlns:xlink="http://www.w3.org/1999/xlink" x="0px" y="0px"
	 viewBox="0 0 256 256" style="enable-background:new 0 0 256 256;" xml:space="preserve">
<style type="text/css">
	.st0{fill:url(#SVGID_1_);}
	.st1{fill:url(#SVGID_2_);}
	.st2{fill:none;stroke:#009EE2;stroke-width:8;stroke-linecap:round;stroke-miterlimit:10;}
	.st3{fill:none;stroke:#009EE2;stroke-width:8;stroke-linecap:round;stroke-miterlimit:10;stroke-dasharray:27.6617,22.1293,0,0;}
</style>
<g>
	<g>
		
			<linearGradient id="SVGID_1_" gradientUnits="userSpaceOnUse" x1="153.5745" y1="240.7932" x2="238.7585" y2="104.4701" gradientTransform="matrix(1 0 0 -1 0 256)">
			<stop  offset="2.930403e-02" style="stop-color:#FCEA0D"/>
			<stop  offset="0.7326" style="stop-color:#F29100"/>
		</linearGradient>
		<circle class="st0" cx="190.5" cy="74.3" r="62.1"/>
		
			<linearGradient id="SVGID_2_" gradientUnits="userSpaceOnUse" x1="128.45" y1="207.8" x2="128.45" y2="73.8" gradientTransform="matrix(1 0 0 -1 0 256)">
			<stop  offset="0.5782" style="stop-color:#FFFFFF"/>
			<stop  offset="0.7142" style="stop-color:#FDFDFD"/>
			<stop  offset="0.7881" style="stop-color:#F5F5F5"/>
			<stop  offset="0.847" style="stop-color:#E7E7E7"/>
			<stop  offset="0.8982" style="stop-color:#D4D4D4"/>
			<stop  offset="0.9439" style="stop-color:#BBBBBB"/>
			<stop  offset="0.9857" style="stop-color:#9D9D9C"/>
			<stop  offset="0.9896" style="stop-color:#9A9A99"/>
		</linearGradient>
		<path class="st1" d="M209.1,102.6c-2.4,0-4.8,0.2-7.2,0.7c0-0.7,0.1-1.3,0.1-2c0-29.3-23.8-53.1-53.1-53.1c-1.2,0-2.4,0-3.6,0.1
			C118.9,50,97.8,71.2,96,97.6c-3.8-5.1-10-8.5-16.8-8.5c-11.7,0-21.1,9.4-21.1,21.1c0,2.5,0.5,5,1.3,7.2c-5-2.8-10.8-4.4-16.9-4.4
			c-19.1,0-34.6,15.5-34.6,34.6s15.5,34.6,34.6,34.6h102.8h63.8c11,0,20.9-4.5,28.2-11.7c7.2-7.2,11.7-17.2,11.7-28.2
			C248.9,120.4,231.1,102.6,209.1,102.6z"/>
	</g>
	<g>
		<g>
			<line class="st2" x1="98.4" y1="165.2" x2="91.4" y2="175.6"/>
			<line class="st3" x1="79.2" y1="194" x2="51.5" y2="235.4"/>
			<line class="st2" x1="51.5" y1="235.4" x2="44.6" y2="245.8"/>
		</g>
	</g>
	<g>
		<g>
			<line class="st2" x1="148.5" y1="141.9" x2="141.6" y2="152.3"/>
			<line class="st3" x1="129.3" y1="170.7" x2="101.7" y2="212.1"/>
			<line class="st2" x1="101.7" y1="212.1" x2="94.8" y2="222.5"/>
		</g>
	</g>
	<g>
		<g>
			<line class="st2" x1="170.1" y1="166.9" x2="163.2" y2="177.3"/>
			<line class="st3" x1="150.9" y1="195.7" x2="123.3" y2="237.2"/>
			<line class="st2" x1="123.3" y1="237.2" x2="116.4" y2="247.6"/>
		</g>
	</g>
</g>
</svg>
