<?xml version="1.0" encoding="utf-8"?>
<!-- Generator: Adobe Illustrator 25.2.3, SVG Export Plug-In . SVG Version: 6.00 Build 0)  -->
<svg version="1.1" id="Capa_1" xmlns="http://www.w3.org/2000/svg" xmlns:xlink="http://www.w3.org/1999/xlink" x="0px" y="0px"
	 viewBox="0 0 256 256" style="enable-background:new 0 0 256 256;" xml:space="preserve">
<style type="text/css">
	.st0{fill:url(#SVGID_1_);}
	.st1{fill:url(#SVGID_2_);}
</style>
<g>
	<linearGradient id="SVGID_1_" gradientUnits="userSpaceOnUse" x1="148.1327" y1="64.582" x2="221.6319" y2="182.2053">
		<stop  offset="2.930403e-02" style="stop-color:#FCEA0D"/>
		<stop  offset="0.7326" style="stop-color:#F29100"/>
	</linearGradient>
	<circle class="st0" cx="180" cy="115.5" r="53.6"/>
	<linearGradient id="SVGID_2_" gradientUnits="userSpaceOnUse" x1="126.3737" y1="93.0068" x2="126.3737" y2="208.6542">
		<stop  offset="0.5782" style="stop-color:#FFFFFF"/>
		<stop  offset="0.7142" style="stop-color:#FDFDFD"/>
		<stop  offset="0.7881" style="stop-color:#F5F5F5"/>
		<stop  offset="0.847" style="stop-color:#E7E7E7"/>
		<stop  offset="0.8982" style="stop-color:#D4D4D4"/>
		<stop  offset="0.9439" style="stop-color:#BBBBBB"/>
		<stop  offset="0.9857" style="stop-color:#9D9D9C"/>
		<stop  offset="0.9896" style="stop-color:#9A9A99"/>
	</linearGradient>
	<path class="st1" d="M196,140c-2.1,0-4.2,0.2-6.2,0.6c0-0.6,0.1-1.1,0.1-1.7c0-25.3-20.5-45.8-45.8-45.8c-1.1,0-2.1,0-3.1,0.1
		c-22.8,1.5-40.9,19.7-42.5,42.5c-3.3-4.4-8.6-7.3-14.5-7.3c-10.1,0-18.2,8.1-18.2,18.2c0,2.2,0.4,4.3,1.1,6.2
		c-4.3-2.4-9.3-3.8-14.6-3.8c-16.5,0-29.9,13.4-29.9,29.8c0,16.5,13.4,29.9,29.9,29.9H141h55c9.5,0,18.1-3.9,24.3-10.1
		c6.2-6.2,10.1-14.8,10.1-24.3C230.4,155.3,215,140,196,140z"/>
</g>
</svg>
