<?xml version="1.0" encoding="utf-8"?>
<!-- Generator: Adobe Illustrator 25.2.3, SVG Export Plug-In . SVG Version: 6.00 Build 0)  -->
<svg version="1.1" id="Capa_1" xmlns="http://www.w3.org/2000/svg" xmlns:xlink="http://www.w3.org/1999/xlink" x="0px" y="0px"
	 viewBox="0 0 256 256" style="enable-background:new 0 0 256 256;" xml:space="preserve">
<style type="text/css">
	.st0{fill:url(#SVGID_1_);}
	.st1{fill:url(#SVGID_2_);}
	.st2{fill:#888888;}
	.st3{fill:url(#SVGID_3_);}
	.st4{fill:url(#SVGID_4_);}
</style>
<linearGradient id="SVGID_1_" gradientUnits="userSpaceOnUse" x1="24.322" y1="182.0639" x2="70.1401" y2="182.0639">
	<stop  offset="0.338" style="stop-color:#FCEA0D"/>
	<stop  offset="0.9896" style="stop-color:#FFD700"/>
</linearGradient>
<polygon class="st0" points="59.1,138.8 70.1,138.8 46.2,177.9 64.6,174.4 24.3,225.3 46.4,186.4 26.4,189.7 "/>
<linearGradient id="SVGID_2_" gradientUnits="userSpaceOnUse" x1="136.168" y1="167.0284" x2="176.4535" y2="167.0284">
	<stop  offset="0.338" style="stop-color:#FCEA0D"/>
	<stop  offset="0.9896" style="stop-color:#FFD700"/>
</linearGradient>
<polygon class="st1" points="160,133 171,133 158.1,153.7 176.5,150.2 136.2,201.1 158.3,162.2 138.3,165.4 "/>
<g>
	<path class="st2" d="M217.4,67.5c-1.9,0-3.8,0.2-5.7,0.5c0-0.5,0.1-1,0.1-1.6c0-23.4-19-42.3-42.3-42.3c-1,0-1.9,0-2.9,0.1
		c-21,1.4-37.8,18.2-39.3,39.3c-3.1-4.1-7.9-6.7-13.4-6.7c-9.3,0-16.8,7.5-16.8,16.8c0,2,0.4,4,1,5.8c-4-2.2-8.6-3.5-13.5-3.5
		C69.4,75.8,57,88.1,57,103.3c0,15.2,12.4,27.6,27.6,27.6h81.9h50.8c8.8,0,16.7-3.6,22.4-9.3c5.8-5.7,9.3-13.7,9.3-22.4
		C249.1,81.7,234.9,67.5,217.4,67.5z"/>
	<linearGradient id="SVGID_3_" gradientUnits="userSpaceOnUse" x1="107.3973" y1="37.7233" x2="107.3973" y2="144.5154">
		<stop  offset="0.5782" style="stop-color:#FFFFFF"/>
		<stop  offset="0.7142" style="stop-color:#FDFDFD"/>
		<stop  offset="0.7881" style="stop-color:#F5F5F5"/>
		<stop  offset="0.847" style="stop-color:#E7E7E7"/>
		<stop  offset="0.8982" style="stop-color:#D4D4D4"/>
		<stop  offset="0.9439" style="stop-color:#BBBBBB"/>
		<stop  offset="0.9857" style="stop-color:#9D9D9C"/>
		<stop  offset="0.9896" style="stop-color:#9A9A99"/>
	</linearGradient>
	<path class="st3" d="M171.7,81.1c-1.9,0-3.8,0.2-5.7,0.5c0-0.5,0.1-1,0.1-1.6c0-23.4-19-42.3-42.3-42.3c-1,0-1.9,0-2.9,0.1
		c-21,1.4-37.8,18.2-39.3,39.3c-3.1-4.1-7.9-6.7-13.4-6.7c-9.3,0-16.8,7.5-16.8,16.8c0,2,0.4,4,1,5.8c-4-2.2-8.6-3.5-13.5-3.5
		c-15.2,0-27.6,12.3-27.6,27.5c0,15.2,12.4,27.6,27.6,27.6h81.9h50.8c8.8,0,16.7-3.6,22.4-9.3c5.8-5.7,9.3-13.7,9.3-22.4
		C203.4,95.3,189.2,81.1,171.7,81.1z"/>
</g>
<linearGradient id="SVGID_4_" gradientUnits="userSpaceOnUse" x1="57.0406" y1="193.2371" x2="128.3093" y2="193.2371">
	<stop  offset="0.338" style="stop-color:#FCEA0D"/>
	<stop  offset="0.9896" style="stop-color:#FFD700"/>
</linearGradient>
<polygon class="st4" points="99.2,133 118.7,133 95.8,169.6 128.3,163.4 57,253.5 96.2,184.7 60.8,190.4 "/>
</svg>
